#N canvas 761 442 672 380 10;
#X declare -lib mrpeach;
#X obj 46 23 import mrpeach;
#X obj 77 223 udpsend;
#X obj 155 200 packOSC;
#X msg 153 168 send /user/1 \$1;
#X obj 311 67 OSC/unpackOSC;
#X floatatom 311 116 5 0 0 0 - - -;
#X obj 311 89 OSC/routeOSC /heading;
#X obj 84 59 bng 15 250 50 0 empty empty empty 17 7 0 10 -262144 -1
-1;
#X floatatom 253 118 5 0 0 0 - - -;
#X obj 313 145 pipe 2000;
#X obj 311 45 iemnet/udpreceive 8001;
#X msg 77 114 connect 127.0.0.10 7110;
#X connect 2 0 1 0;
#X connect 3 0 2 0;
#X connect 4 0 6 0;
#X connect 5 0 9 0;
#X connect 6 0 5 0;
#X connect 7 0 11 0;
#X connect 8 0 3 0;
#X connect 10 0 4 0;
#X connect 11 0 1 0;
